<?xml version="1.0" encoding="UTF-8" standalone="no"?>
<!DOCTYPE svg PUBLIC "-//W3C//DTD SVG 1.1//EN" "http://www.w3.org/Graphics/SVG/1.1/DTD/svg11.dtd">
<!-- Created with Vectornator (http://vectornator.io/) -->
<svg height="100%" stroke-miterlimit="10" style="fill-rule:nonzero;clip-rule:evenodd;stroke-linecap:round;stroke-linejoin:round;" version="1.1" viewBox="0 0 213.137 157.827" width="100%" xml:space="preserve" xmlns="http://www.w3.org/2000/svg" xmlns:vectornator="http://vectornator.io" xmlns:xlink="http://www.w3.org/1999/xlink">
<defs/>
<g id="Capa-1" vectornator:layerName="Capa 1">
<g fill="#000000" opacity="1" stroke="none" vectornator:layerName="Text 1">
<path d="M40.6968 143.535L38.9168 143.535C35.8314 143.535 32.8648 143.238 30.0168 142.645C27.1688 142.052 24.6471 140.984 22.4518 139.441C20.2564 137.898 18.4764 135.762 17.1118 133.033C15.7471 130.304 15.0648 126.744 15.0648 122.353L15.0648 14.3069L17.9128 14.3069C20.7608 14.3069 23.5494 14.6333 26.2788 15.2859C29.0081 15.9386 31.4408 17.0659 33.5768 18.6679C35.7128 20.2699 37.4334 22.4356 38.7388 25.1649C40.0441 27.8943 40.6968 31.3949 40.6968 35.6669L40.6968 143.535Z"/>
<path d="M98.1908 80.8789C98.1908 79.4549 98.1018 78.0903 97.9238 76.7849C97.7458 75.4796 97.3898 74.3226 96.8558 73.3139C96.3218 72.3053 95.5504 71.4746 94.5418 70.8219C93.5331 70.1693 92.1388 69.8429 90.3588 69.8429C89.4094 69.8429 88.4304 69.9913 87.4218 70.2879C86.4131 70.5846 85.4934 71.0889 84.6628 71.8009C84.1881 70.8516 83.8914 69.9319 83.7728 69.0419C83.6541 68.1519 83.5948 67.2323 83.5948 66.2829C83.5948 62.4856 85.3154 59.3409 88.7568 56.8489C92.1981 54.3569 96.5888 53.1109 101.929 53.1109C108.337 53.1109 113.291 55.0393 116.792 58.8959C120.292 62.7526 122.043 68.4189 122.043 75.8949L122.043 143.535L120.975 143.535C113.855 143.535 108.277 141.844 104.243 138.462C100.208 135.08 98.1908 129.651 98.1908 122.175L98.1908 80.8789ZM57.6068 53.1109L59.5648 53.1109C65.7354 53.1109 70.9271 54.7723 75.1398 58.0949C79.3524 61.4176 81.4588 66.6983 81.4588 73.9369L81.4588 143.535L80.3908 143.535C77.6614 143.535 74.9618 143.179 72.2918 142.467C69.6218 141.755 67.1891 140.598 64.9938 138.996C62.7984 137.394 61.0184 135.317 59.6538 132.766C58.2891 130.215 57.6068 127.04 57.6068 123.243L57.6068 53.1109Z"/>
<path d="M169.213 94.5849C172.535 94.5849 175.799 95.0299 179.003 95.9199C182.207 96.8099 184.995 98.2043 187.369 100.103C189.742 102.002 191.67 104.464 193.154 107.49C194.637 110.516 195.379 114.165 195.379 118.437L195.379 144.781C192.412 144.781 189.386 144.277 186.301 143.268C183.215 142.259 180.397 140.806 177.846 138.907C175.294 137.008 173.218 134.665 171.616 131.876C170.014 129.087 169.213 125.913 169.213 122.353L169.213 94.5849ZM173.129 49.5509C174.671 49.5509 176.807 49.8179 179.537 50.3519C182.266 50.8859 184.906 51.9243 187.458 53.4669C190.009 55.0096 192.234 57.1456 194.133 59.8749C196.031 62.6043 196.981 66.1643 196.981 70.5549C196.981 73.4029 196.654 76.1323 196.002 78.7429C195.349 81.3536 194.37 83.6379 193.065 85.5959C191.759 87.5539 190.009 89.1263 187.814 90.3129C185.618 91.4996 183.037 92.0929 180.071 92.0929C175.205 92.0929 171.675 90.5799 169.48 87.5539C167.284 84.5279 166.187 80.9976 166.187 76.9629L166.187 75.0049C166.661 75.5983 167.047 76.0433 167.344 76.3399C167.64 76.6366 168.263 76.7849 169.213 76.7849C170.874 76.7849 171.942 75.9839 172.417 74.3819C172.891 72.7799 173.129 70.3769 173.129 67.1729L173.129 49.5509ZM138.063 14.3069L140.021 14.3069C146.191 14.3069 151.383 15.9683 155.596 19.2909C159.808 22.6136 161.915 27.8943 161.915 35.1329L161.915 143.535C161.44 143.535 161.025 143.565 160.669 143.624C160.313 143.683 159.897 143.713 159.423 143.713C156.812 143.713 154.231 143.357 151.68 142.645C149.128 141.933 146.844 140.746 144.827 139.085C142.809 137.424 141.178 135.258 139.932 132.588C138.686 129.918 138.063 126.625 138.063 122.709L138.063 14.3069Z"/>
</g>
</g>
</svg>
